<svg width="36" height="36" viewBox="0 0 36 36" fill="none" xmlns="http://www.w3.org/2000/svg">
<g clip-path="url(#clip0_9843_6009)">
<path d="M27.045 6.58511L25.755 8.02511C23.61 6.36011 20.91 5.35511 18 5.35511C16.395 5.35511 14.865 5.65511 13.455 6.19511L11.355 1.26011C13.41 0.435107 15.645 -0.0148926 17.985 -0.0148926C20.835 -0.0148926 23.52 0.645107 25.92 1.83011L23.415 3.61511L27.03 6.57011L27.045 6.58511Z" fill="#721C17"/>
<path d="M36 17.9999C36 18.8549 35.94 19.7099 35.82 20.5349L30.6 19.0199C30.63 18.6899 30.645 18.3449 30.645 17.9999C30.645 14.4899 29.205 11.2949 26.88 8.99989L29.19 6.40489L25.875 3.70489L27.375 2.63989C32.55 5.80489 36 11.5049 36 17.9999Z" fill="#721C17"/>
<path d="M6.11998 22.3501C7.57498 26.2951 10.935 29.3251 15.09 30.3001L13.455 35.4151C7.84498 33.9451 3.29998 29.8351 1.22998 24.4951L4.87498 24.9751L6.14998 22.3501H6.11998Z" fill="#721C17"/>
<path d="M18 30.6449C24.12 30.6449 29.235 26.2799 30.39 20.5049L35.535 22.0049C33.705 30.0149 26.535 35.9999 17.985 35.9999C16.935 35.9999 15.9 35.9099 14.895 35.7299L16.56 30.5699C17.025 30.6299 17.505 30.6599 17.985 30.6599" fill="#721C17"/>
<path d="M5.35486 18C5.35486 18.735 5.41486 19.455 5.53486 20.145L3.97486 23.355L0.674863 22.92C0.224863 21.36 -0.0151367 19.695 -0.0151367 18C-0.000136719 10.95 4.07986 4.83 10.0049 1.875L12.1049 6.81C8.09986 8.94 5.35486 13.155 5.35486 18Z" fill="#721C17"/>
</g>
<defs>
<clipPath id="clip0_9843_6009">
<rect width="36" height="36" fill="white"/>
</clipPath>
</defs>
</svg>
