<svg width="48" height="48" viewBox="0 0 48 48" fill="none" xmlns="http://www.w3.org/2000/svg">
<g clip-path="url(#clip0_10204_8849)">
<path d="M43.3597 17.3L33.2797 20.2C32.9797 22.84 31.5597 25.18 29.3597 26.64L32.5997 30.12L28.6797 34.1L33.0197 38.14C34.8997 36.24 36.8397 34.08 39.0197 31.4L39.2797 31.08L39.3197 31.02C42.0197 27.62 43.4397 23.52 43.4397 19.18C43.4397 18.54 43.3997 17.92 43.3397 17.28" fill="white"/>
<path d="M31.5998 6.40012L29.1998 11.5401C31.5398 12.9601 33.1198 15.4001 33.4598 18.1001V18.1601L43.2598 15.3401V15.2801C41.4398 6.52012 33.8598 0.240117 24.8398 0.120117L25.4398 3.66012L31.5998 6.40012Z" fill="white"/>
<path d="M23.6197 10.04C24.6197 10.04 25.5797 10.2 26.5197 10.52L28.0797 7.16L22.7597 4.8L21.9597 0C15.8197 0.54 10.2997 4.04 7.17969 9.36L16.0197 14.28C17.6397 11.68 20.5197 10.04 23.6397 10.04" fill="white"/>
<path d="M29.1802 30.66L26.8202 28.14C25.8002 28.54 24.7202 28.74 23.6002 28.74C21.6402 28.74 19.8002 28.12 18.2602 26.98L13.7402 37.5C15.3802 39.22 16.6402 40.38 17.7602 41.42C19.7202 43.22 21.3202 44.7 23.6002 48.02C25.8802 44.7 27.4802 43.22 29.4402 41.42C29.9002 41 30.3602 40.58 30.8802 40.08L25.1602 34.76L29.1602 30.68L29.1802 30.66Z" fill="white"/>
<path d="M14.6595 18.82C14.6595 17.9 14.7995 17.02 15.0595 16.16L15.0995 16L6.17953 11.04L6.11953 11.2C5.05953 13.6 4.51953 16.16 4.51953 18.84C4.51953 23.2 5.93953 27.3 8.63953 30.7L8.93953 31.06C10.1195 32.52 11.2395 33.82 12.2995 35L16.7595 24.64C15.3795 23.02 14.6395 20.98 14.6395 18.84" fill="white"/>
</g>
<defs>
<clipPath id="clip0_10204_8849">
<rect width="48" height="48" fill="white"/>
</clipPath>
</defs>
</svg>
