<svg width="179" height="60" viewBox="0 0 179 60" fill="none" xmlns="http://www.w3.org/2000/svg">
<g clip-path="url(#clip0_9029_7683)">
<path d="M45.056 10.975L42.9069 13.375C39.3334 10.6 34.8353 8.925 29.9874 8.925C27.3135 8.925 24.7645 9.425 22.4155 10.325L18.917 2.1C22.3655 0.75 26.089 0 29.9874 0C34.7354 0 39.2085 1.1 43.2068 3.075L39.0336 6.05L45.056 10.975Z" fill="#818E99"/>
<path d="M59.9749 30C59.9749 31.425 59.8749 32.85 59.675 34.225L50.9786 31.7C51.0286 31.15 51.0536 30.575 51.0536 30C51.0536 24.15 48.6546 18.825 44.7812 15L48.6296 10.675L43.1069 6.175L45.6059 4.4C54.2273 9.675 59.9749 19.175 59.9749 30Z" fill="#802377"/>
<path d="M10.1959 37.25C12.6199 43.825 18.2175 48.875 25.1396 50.5L22.4158 59.025C13.0697 56.575 5.49787 49.725 2.04932 40.825L8.12177 41.625L10.2459 37.25H10.1959Z" fill="#C7362F"/>
<path d="M29.9873 51.075C40.183 51.075 48.7044 43.8 50.6286 34.175L59.2 36.675C56.1513 50.025 44.2063 60 29.9623 60C28.213 60 26.4888 59.85 24.8145 59.55L27.5883 50.95C28.363 51.05 29.1626 51.1 29.9623 51.1" fill="#721C16"/>
<path d="M8.92126 30C8.92126 31.225 9.02122 32.425 9.22114 33.575L6.62223 38.925L1.12453 38.2C0.399832 35.6 0 32.85 0 30C0 18.25 6.79715 8.05 16.668 3.125L20.1666 11.35C13.4943 14.9 8.92126 21.925 8.92126 30Z" fill="#DC9234"/>
<path d="M151.712 21.325H154.86C155.81 21.325 156.56 21.625 157.109 22.175C157.659 22.75 157.909 23.55 157.909 24.575C157.909 25.6 157.634 26.45 157.084 27.025C156.535 27.6 155.76 27.9 154.785 27.9H151.712V21.3V21.325ZM147.838 21.325V39.1H151.712V31.2H153.661C154.235 31.2 154.66 31.25 154.91 31.4C155.185 31.525 155.41 31.8 155.635 32.2L158.334 37.525C158.659 38.175 159.009 38.6 159.408 38.8C159.808 39 160.408 39.1 161.208 39.1H163.232V35.8H162.832C162.457 35.8 162.132 35.75 161.907 35.675C161.682 35.6 161.507 35.4 161.358 35.125L159.358 31.025C159.233 30.8 159.108 30.6 158.909 30.4L158.509 30.05L158.334 29.95V29.9C158.584 29.85 158.884 29.7 159.233 29.475C159.583 29.25 159.958 28.925 160.358 28.5C160.758 28.075 161.083 27.5 161.358 26.775C161.632 26.05 161.757 25.25 161.757 24.35C161.757 22.4 161.158 20.85 159.958 19.7C158.759 18.575 157.184 18 155.235 18H145.864V21.3H147.788L147.838 21.325ZM125.548 32.75C126.072 34.1 126.797 35.275 127.722 36.275C128.646 37.275 129.771 38.05 131.12 38.625C132.47 39.2 133.894 39.475 135.443 39.475C136.468 39.475 137.493 39.35 138.467 39.075C139.467 38.825 140.266 38.525 140.891 38.2C141.516 37.875 142.091 37.525 142.64 37.1C143.19 36.675 143.54 36.4 143.69 36.225L144.065 35.825L142.016 33.025L141.741 33.325C141.566 33.525 141.291 33.75 140.891 34.025C140.491 34.3 140.066 34.575 139.567 34.85C139.067 35.125 138.467 35.35 137.742 35.55C137.018 35.75 136.268 35.85 135.518 35.85C134.269 35.85 133.094 35.525 132.045 34.85C130.995 34.175 130.171 33.275 129.546 32.15C128.946 31 128.646 29.75 128.646 28.4C128.646 26.25 129.296 24.55 130.57 23.25C131.845 21.95 133.469 21.3 135.393 21.3C136.043 21.3 136.693 21.375 137.343 21.525C137.992 21.675 138.542 21.925 139.042 22.3C139.517 22.65 139.767 23.075 139.767 23.55V24.75H143.54V22.4C143.54 21.725 143.34 21.1 142.94 20.525C142.54 19.975 142.041 19.525 141.441 19.175C140.841 18.825 140.166 18.55 139.417 18.3C138.667 18.075 137.942 17.9 137.243 17.8C136.568 17.7 135.918 17.675 135.318 17.675C133.344 17.675 131.545 18.15 129.946 19.075C128.346 20 127.072 21.3 126.172 22.925C125.248 24.55 124.798 26.375 124.798 28.375C124.798 29.925 125.048 31.375 125.573 32.725L125.548 32.75ZM100.808 36.375L101.283 36.85C101.483 37.05 101.757 37.25 102.032 37.475C102.332 37.7 102.682 37.95 103.082 38.175C103.507 38.4 103.932 38.625 104.406 38.8C104.856 39 105.406 39.15 106.006 39.275C106.605 39.4 107.23 39.45 107.88 39.45C110.004 39.45 111.703 38.85 112.953 37.65C114.202 36.45 114.852 34.975 114.852 33.25C114.852 32.525 114.752 31.85 114.502 31.225C114.277 30.6 113.977 30.075 113.603 29.65C113.228 29.225 112.778 28.825 112.303 28.45C111.803 28.075 111.303 27.775 110.754 27.5C110.204 27.225 109.679 26.975 109.129 26.75C108.58 26.525 108.055 26.275 107.555 26.05C107.055 25.825 106.605 25.6 106.231 25.35C105.856 25.1 105.556 24.825 105.306 24.5C105.081 24.175 104.956 23.825 104.956 23.45C104.956 22.775 105.256 22.225 105.831 21.8C106.406 21.375 107.155 21.175 108.055 21.175C108.78 21.175 109.429 21.325 110.004 21.65C110.579 21.975 110.854 22.35 110.854 22.825V23.775H114.727V21.825C114.727 21.1 114.502 20.475 114.077 19.925C113.652 19.375 113.078 18.925 112.378 18.625C111.703 18.3 110.979 18.075 110.254 17.925C109.504 17.775 108.805 17.675 108.105 17.675C106.081 17.675 104.406 18.225 103.082 19.35C101.757 20.475 101.108 21.9 101.108 23.6C101.108 24.3 101.208 24.95 101.458 25.55C101.683 26.15 101.982 26.65 102.357 27.075C102.732 27.5 103.182 27.9 103.657 28.275C104.156 28.65 104.656 28.95 105.206 29.225C105.756 29.5 106.281 29.775 106.83 30.025C107.38 30.275 107.905 30.525 108.405 30.775C108.904 31.025 109.354 31.275 109.729 31.525C110.104 31.775 110.429 32.075 110.654 32.4C110.879 32.725 111.004 33.075 111.004 33.45C111.004 34.225 110.704 34.85 110.129 35.275C109.554 35.7 108.83 35.925 107.98 35.925C107.43 35.925 106.88 35.825 106.331 35.65C105.781 35.475 105.306 35.275 104.931 35.05C104.556 34.825 104.206 34.575 103.857 34.3C103.507 34.025 103.282 33.825 103.157 33.7L102.907 33.425L100.708 36.15L100.858 36.35L100.808 36.375ZM98.6088 39.1V35.8H96.4847V21.325H98.6088V18.025H90.7121V21.325H92.8112V35.8H90.7121V39.1H98.6088ZM78.7421 25.225C78.992 24.45 79.2669 23.4 79.5668 22.075H79.6168L79.7417 22.6C79.8167 22.95 79.9416 23.4 80.0916 23.925C80.2415 24.45 80.3664 24.9 80.4664 25.225L82.2656 30.5H76.9429L78.7421 25.225ZM72.2698 39.1C72.9945 39.1 73.5443 38.975 73.8692 38.75C74.194 38.525 74.4939 38.05 74.7188 37.375L76.0183 33.7H83.1403L84.4397 37.375C84.6896 38.05 84.9645 38.5 85.3144 38.725C85.6642 38.975 86.189 39.1 86.9387 39.1H89.2627V35.8H88.7879C88.538 35.8 88.3381 35.75 88.2131 35.675C88.0882 35.575 87.9633 35.425 87.8883 35.15L81.6409 18.025H77.5926L71.3452 35.15C71.2702 35.4 71.1453 35.575 71.0204 35.675C70.8954 35.75 70.6955 35.8 70.4206 35.8H69.9458V39.1H72.2698Z" fill="white"/>
</g>
<defs>
<clipPath id="clip0_9029_7683">
<rect width="179" height="60" fill="white"/>
</clipPath>
</defs>
</svg>
