<?xml version="1.0" encoding="UTF-8"?><svg id="GRAFIKA" xmlns="http://www.w3.org/2000/svg" viewBox="0 0 171.5 27.17"><defs><style>.cls-1{fill:#f6ec42;}.cls-2{fill:#fff;}.cls-3{fill:#808285;}.cls-4{fill:#034ea2;}.cls-5{fill:#448e99;}</style></defs><g id="Layer_2"><g id="Layer_1-2"><path class="cls-5" d="M149.18,3.39l2.35-1.4h-.74l-2.16.97-2.2-.97h-.7l2.37,1.4h1.08ZM150.32,10.95c1.03-.33,1.8-.91,1.9-1.72,0-1.15-1.34-1.6-2.66-1.87-1.91-.38-3.27-.7-3.49-1.53-.03-.08-.05-.17-.04-.26.04-.91,1.3-1.45,2.45-1.45s1.91.15,2.66.85l.64-.21c-.83-.74-1.96-.94-3.3-.94-.94-.03-1.88.15-2.75.52V1.99h-1.7l-4.33,5.61h-.04l-4.41-5.61h-1.65v6.89h.81V2.86l4.84,6.12h-1.49v6.87h.68v-6.01l4.9,6.2h.02l4.94-6.28v6.09h1.45v-4.56h2.56v6.41h1.49v-6.41h3.08v-.34h-6.56ZM149.76,10.56v-1.57h-1.7l-1.39,1.8c-.56-.13-1.07-.41-1.48-.8l-.7.26c.54.47,1.21.78,1.92.89l-2.67,3.47h-.04l-4.36-5.55,4.93-6.27v6.1h1.45v-1.69c.94.32,1.9.57,2.88.75,1.58.34,2.04.94,2.04,1.51,0,.45-.32.84-.89,1.11"/><polygon class="cls-3" points="121.18 19.43 121.53 19.43 122.44 21.4 123.37 19.43 123.69 19.43 123.69 21.6 123.48 21.6 123.48 19.62 122.57 21.6 122.32 21.6 121.37 19.62 121.39 21.6 121.18 21.6 121.18 19.43"/><rect class="cls-3" x="124.52" y="19.43" width=".22" height="2.17"/><polygon class="cls-3" points="125.56 19.43 125.84 19.43 127.36 21.38 127.36 19.43 127.57 19.43 127.57 21.6 127.28 21.6 125.77 19.65 125.77 21.6 125.56 21.6 125.56 19.43"/><rect class="cls-3" x="128.4" y="19.43" width=".22" height="2.17"/><path class="cls-3" d="M129.58,20.88h0c0,.33.27.55.69.55s.67-.18.67-.44-.18-.3-.54-.37l-.46-.08c-.34-.06-.51-.24-.51-.54,0-.37.3-.63.83-.63s.84.25.86.67h-.22c-.03-.3-.24-.47-.63-.47s-.6.17-.6.42.18.3.54.37l.41.07c.39.07.57.24.57.56,0,.42-.32.67-.88.67s-.93-.3-.93-.74v-.03h.22,0Z"/><polygon class="cls-3" points="132.49 19.63 131.66 19.63 131.66 19.43 133.55 19.43 133.55 19.63 132.71 19.63 132.71 21.6 132.49 21.6 132.49 19.63"/><polygon class="cls-3" points="134.11 19.43 135.78 19.43 135.78 19.63 134.33 19.63 134.33 20.39 135.67 20.39 135.67 20.6 134.33 20.6 134.33 21.39 135.78 21.39 135.78 21.6 134.11 21.6 134.11 19.43"/><path class="cls-3" d="M136.48,19.43h1.04c.52,0,.78.2.78.58.03.25-.13.48-.37.54.24.04.3.15.33.41,0,.22.03.43.11.64h-.25c-.05-.2-.08-.41-.09-.62-.03-.22-.15-.3-.42-.3h-.91v.93h-.22v-2.18ZM136.69,19.63v.83h.8c.4,0,.58-.11.58-.42s-.19-.41-.6-.41h-.78Z"/><path class="cls-3" d="M139.19,20.88h0c0,.33.27.55.69.55s.67-.18.67-.44-.17-.3-.54-.37l-.46-.08c-.34-.06-.51-.24-.51-.54,0-.37.3-.63.83-.63s.84.25.85.67h-.22c-.02-.3-.24-.47-.63-.47s-.6.17-.6.42.18.3.54.37l.41.07c.39.07.57.24.57.56,0,.42-.32.67-.88.67s-.93-.3-.93-.74v-.03h.22,0Z"/><polygon class="cls-3" points="142.1 19.63 141.26 19.63 141.26 19.43 143.16 19.43 143.16 19.63 142.32 19.63 142.32 21.6 142.1 21.6 142.1 19.63"/><polygon class="cls-3" points="143.48 19.43 143.72 19.43 144.59 21.41 145.46 19.43 145.7 19.43 144.73 21.6 144.45 21.6 143.48 19.43"/><path class="cls-3" d="M147.25,21.66c-.63,0-1.14-.51-1.15-1.14,0-.63.51-1.14,1.14-1.15.63,0,1.14.51,1.15,1.14h0c.05.58-.37,1.09-.95,1.15-.06,0-.12,0-.19,0M148.16,20.51c-.01-.5-.43-.9-.93-.88-.5.01-.9.43-.88.93.01.49.42.88.91.88.47.03.88-.32.91-.79,0-.05,0-.1,0-.15"/><path class="cls-3" d="M150.51,20.88h0c0,.33.27.55.69.55s.67-.18.67-.44-.18-.3-.54-.37l-.46-.08c-.34-.06-.51-.24-.51-.54,0-.37.3-.63.83-.63s.84.25.86.67h-.22c-.03-.3-.24-.47-.63-.47s-.6.17-.6.42.18.3.54.37l.41.07c.39.07.57.24.57.56,0,.42-.32.67-.88.67s-.93-.3-.93-.74v-.03h.22,0ZM151.49,18.77h.23l-.4.44h-.25l-.42-.44h.23l.3.32.3-.32Z"/><polygon class="cls-3" points="152.83 19.43 153.05 19.43 153.05 20.62 154.39 19.43 154.69 19.43 153.67 20.34 154.69 21.6 154.42 21.6 153.51 20.48 153.05 20.88 153.05 21.6 152.83 21.6 152.83 19.43"/><path class="cls-3" d="M156.2,21.66c-.63,0-1.14-.51-1.14-1.14s.51-1.14,1.14-1.14c.63,0,1.14.51,1.14,1.14h0c.05.58-.37,1.09-.95,1.14-.06,0-.13,0-.19,0M157.12,20.51c-.01-.5-.43-.9-.93-.88-.5.01-.9.43-.88.93.01.49.41.87.89.88.47.04.88-.31.92-.78,0-.05,0-.1,0-.16"/><polygon class="cls-3" points="158.05 19.43 158.26 19.43 158.26 21.39 159.63 21.39 159.63 21.6 158.05 21.6 158.05 19.43"/><path class="cls-3" d="M160.41,20.88h0c0,.33.27.55.69.55s.67-.18.67-.44-.18-.3-.54-.37l-.46-.08c-.35-.06-.51-.24-.51-.54,0-.37.3-.63.83-.63s.84.25.85.67h-.21c-.03-.3-.24-.47-.63-.47s-.6.17-.6.42.18.3.54.37l.41.07c.4.07.57.24.57.56,0,.42-.32.67-.88.67s-.93-.3-.93-.74v-.03h.22,0Z"/><polygon class="cls-3" points="163.32 19.63 162.48 19.63 162.48 19.43 164.38 19.43 164.38 19.63 163.54 19.63 163.54 21.6 163.32 21.6 163.32 19.63"/><polygon class="cls-3" points="164.7 19.43 164.94 19.43 165.81 21.41 166.68 19.43 166.92 19.43 165.94 21.6 165.67 21.6 164.7 19.43"/><path class="cls-3" d="M167.5,19.43h.22v2.17h-.22v-2.17ZM167.79,18.77h.28l-.36.44h-.18l.26-.44Z"/><path class="cls-3" d="M168.66,21.34h.24v.35c0,.21-.05.32-.24.38v-.14c.08-.04.12-.12.11-.2v-.13h-.11v-.26Z"/><polygon class="cls-3" points="124.85 22.8 125.14 22.8 125.9 24.44 126.67 22.8 126.94 22.8 126.94 24.6 126.76 24.6 126.77 22.95 126 24.6 125.8 24.6 125.01 22.95 125.03 24.6 124.85 24.6 124.85 22.8"/><polygon class="cls-3" points="127.56 22.8 127.74 22.8 127.74 24.43 128.88 24.43 128.88 24.6 127.56 24.6 127.56 22.8"/><path class="cls-3" d="M130,22.79h.21l.82,1.81h-.18l-.25-.56h-.99l-.25.56h-.18l.83-1.81ZM130.51,23.86l-.41-.91-.42.91h.83ZM130.24,22.24h.22l-.3.37h-.15l.23-.37Z"/><path class="cls-3" d="M132.86,22.96c.38.42.38,1.06,0,1.48-.22.14-.48.19-.74.16h-.66v-1.81h.66c.26-.03.52.03.74.16M131.65,22.95v1.47h.47c.21.02.42-.02.6-.11.19-.15.28-.39.25-.63.03-.23-.07-.46-.25-.6-.2-.1-.41-.14-.63-.11h-.45Z"/><polygon class="cls-3" points="133.68 22.8 135.07 22.8 135.07 22.97 133.86 22.97 133.86 23.6 134.97 23.6 134.97 23.77 133.86 23.77 133.86 24.43 135.07 24.43 135.07 24.6 133.68 24.6 133.68 22.8"/><path class="cls-3" d="M135.46,24.43l1.32-1.46h-1.26v-.18h1.51v.17l-1.35,1.46h1.35v.19h-1.58v-.18ZM136.61,22.25h.2l-.34.37h-.21l-.36-.37h.19l.26.27.26-.27Z"/><polygon class="cls-3" points="137.53 22.8 138.92 22.8 138.92 22.97 137.71 22.97 137.71 23.6 138.82 23.6 138.82 23.77 137.71 23.77 137.71 24.43 138.92 24.43 138.92 24.6 137.53 24.6 137.53 22.8"/><path class="cls-3" d="M141.09,22.79h.21l.82,1.81h-.17l-.25-.56h-.99l-.27.56h-.18l.84-1.81ZM141.61,23.86l-.41-.91-.41.91h.83Z"/><polygon class="cls-3" points="144.05 22.97 143.35 22.97 143.35 22.8 144.93 22.8 144.93 22.97 144.23 22.97 144.23 24.6 144.05 24.6 144.05 22.97"/><path class="cls-3" d="M145.34,22.79h1.38v.17h-1.21v.63h1.11v.17h-1.11v.66h1.21v.18h-1.38v-1.81ZM146.31,22.24h.19l-.34.37h-.21l-.35-.37h.19l.26.27.26-.27Z"/><polygon class="cls-3" points="147.26 22.8 147.44 22.8 147.44 24.43 148.57 24.43 148.57 24.6 147.26 24.6 147.26 22.8"/><path class="cls-3" d="M149.73,24.65c-.52,0-.95-.43-.95-.95s.43-.95.95-.95.95.42.95.95c.04.48-.31.91-.79.95-.05,0-.11,0-.16,0M150.49,23.7c0-.42-.35-.76-.77-.76s-.76.35-.76.77c0,.42.35.76.76.76.39.03.73-.25.77-.64,0-.04,0-.09,0-.13"/><polygon class="cls-3" points="150.97 22.8 151.16 22.8 151.89 24.45 152.61 22.8 152.81 22.8 152 24.6 151.77 24.6 150.97 22.8"/><path class="cls-3" d="M153.83,23.82l-.78-1.03h.23l.64.88.64-.88h.22l-.78,1.03v.79h-.18v-.78ZM154.09,22.25h.23l-.3.37h-.15l.22-.37Z"/><path class="cls-3" d="M156.08,22.93c-.39-.03-.73.26-.76.65,0,.04,0,.08,0,.12-.04.39.24.73.63.77.03,0,.07,0,.1,0,.34.02.65-.21.72-.54h.19c-.07.44-.46.75-.91.73-.52-.04-.92-.49-.88-1.01.03-.48.43-.86.91-.88.4-.05.77.23.83.64h-.18c-.07-.3-.35-.5-.66-.46"/><polygon class="cls-3" points="157.45 22.8 157.63 22.8 157.63 23.55 158.8 23.55 158.8 22.8 158.98 22.8 158.98 24.6 158.8 24.6 158.8 23.72 157.63 23.72 157.63 24.6 157.45 24.6 157.45 22.8"/><path class="cls-3" d="M160.46,24.65c-.52,0-.95-.42-.95-.95s.42-.95.95-.95c.52,0,.95.42.95.95.04.48-.31.91-.79.95-.05,0-.1,0-.16,0M161.22,23.7c0-.42-.35-.76-.77-.76-.42,0-.76.35-.76.77,0,.42.35.76.77.76.39.03.73-.25.76-.64,0-.04,0-.09,0-.13"/><polygon class="cls-3" points="161.7 22.8 161.9 22.8 162.62 24.45 163.34 22.8 163.54 22.8 162.73 24.6 162.51 24.6 161.7 22.8"/><polygon class="cls-3" points="164.56 23.82 163.78 22.8 164.01 22.8 164.65 23.68 165.3 22.8 165.52 22.8 164.74 23.82 164.74 24.6 164.56 24.6 164.56 23.82"/><rect class="cls-2" x="2.55" y="1.32" width="35.34" height="24"/><rect class="cls-4" x="3.23" y="1.98" width="33.98" height="22.66"/><polygon class="cls-1" points="19.5 6.92 20.22 6.39 20.93 6.92 20.66 6.07 21.39 5.55 20.49 5.55 20.22 4.69 19.94 5.55 19.04 5.55 19.77 6.07 19.5 6.92"/><polygon class="cls-1" points="15.79 7.91 16.5 7.39 17.22 7.91 16.95 7.07 17.68 6.54 16.78 6.54 16.5 5.68 16.23 6.54 15.33 6.54 16.06 7.07 15.79 7.91"/><polygon class="cls-1" points="13.79 8.41 13.51 9.27 12.62 9.27 13.35 9.79 13.07 10.63 13.79 10.11 14.5 10.63 14.23 9.79 14.96 9.27 14.06 9.27 13.79 8.41"/><polygon class="cls-1" points="12.79 13.82 13.51 14.34 13.24 13.5 13.97 12.97 13.07 12.97 12.79 12.11 12.52 12.97 11.62 12.97 12.35 13.5 12.08 14.34 12.79 13.82"/><polygon class="cls-1" points="14.06 16.69 13.79 15.83 13.51 16.69 12.62 16.69 13.35 17.21 13.07 18.06 13.79 17.54 14.5 18.06 14.23 17.21 14.96 16.69 14.06 16.69"/><polygon class="cls-1" points="16.78 19.41 16.51 18.55 16.24 19.41 15.34 19.41 16.06 19.93 15.79 20.78 16.51 20.26 17.22 20.78 16.95 19.93 17.68 19.41 16.78 19.41"/><polygon class="cls-1" points="20.49 20.4 20.22 19.54 19.94 20.4 19.04 20.4 19.77 20.92 19.5 21.77 20.22 21.24 20.93 21.77 20.66 20.92 21.39 20.4 20.49 20.4"/><polygon class="cls-1" points="24.19 19.41 23.92 18.55 23.65 19.41 22.75 19.41 23.48 19.93 23.21 20.78 23.92 20.26 24.64 20.78 24.36 19.93 25.09 19.41 24.19 19.41"/><polygon class="cls-1" points="26.92 16.69 26.64 15.83 26.37 16.69 25.47 16.69 26.2 17.21 25.92 18.06 26.64 17.54 27.36 18.06 27.09 17.21 27.81 16.69 26.92 16.69"/><polygon class="cls-1" points="28.8 12.96 27.9 12.96 27.63 12.1 27.35 12.96 26.46 12.96 27.18 13.48 26.91 14.33 27.63 13.81 28.34 14.33 28.07 13.48 28.8 12.96"/><polygon class="cls-1" points="25.92 10.62 26.64 10.1 27.36 10.62 27.09 9.78 27.81 9.25 26.92 9.25 26.64 8.4 26.37 9.26 25.47 9.25 26.2 9.78 25.92 10.62"/><polygon class="cls-1" points="23.93 5.69 23.66 6.54 22.76 6.54 23.49 7.07 23.22 7.91 23.93 7.39 24.65 7.91 24.38 7.07 25.11 6.54 24.21 6.54 23.93 5.69"/><path class="cls-4" d="M44.88,9.53c.28.02.56-.04.8-.18.17-.12.26-.32.25-.52,0-.12-.03-.24-.08-.35-.06-.1-.14-.19-.24-.26-.12-.09-.25-.16-.38-.22-.15-.07-.32-.13-.51-.2s-.38-.15-.56-.23c-.17-.08-.33-.18-.47-.3-.14-.12-.25-.27-.33-.44-.09-.19-.13-.41-.12-.62-.02-.46.17-.9.52-1.19.41-.31.91-.46,1.42-.43.31,0,.63.03.93.11.22.06.44.14.64.25l-.3.82c-.19-.11-.39-.18-.6-.23-.22-.05-.45-.08-.67-.08-.23-.01-.45.05-.64.17-.15.11-.24.29-.23.47,0,.11.02.22.08.32.06.09.13.17.22.24.1.08.21.14.33.19.13.07.27.12.41.17.26.1.5.2.7.3.19.09.37.2.52.35.14.14.25.3.33.48.08.22.12.44.11.67.02.45-.18.89-.54,1.17-.47.3-1.02.44-1.57.4-.21,0-.42-.01-.63-.05-.17-.02-.34-.06-.51-.11-.15-.04-.27-.09-.38-.13-.09-.04-.17-.08-.26-.13l.3-.83c.19.1.39.18.59.24.29.09.59.13.89.12"/><path class="cls-4" d="M50.63,8.2c.02-.36-.09-.72-.3-1.02-.24-.26-.59-.4-.95-.36h-.28c-.1,0-.2.03-.3.05v2.42c.11.07.22.12.34.16.15.05.3.08.45.08.31.03.61-.1.79-.35.18-.29.26-.63.24-.97M51.62,8.19c0,.3-.04.6-.12.89-.07.25-.2.49-.36.69-.16.2-.36.35-.58.45-.25.11-.52.17-.79.16-.18,0-.37-.02-.55-.07-.14-.04-.28-.09-.41-.16v1.63h-.98v-5.57c.2-.05.44-.1.73-.15.3-.05.6-.07.91-.07.31,0,.62.04.91.15.25.1.48.25.67.44.19.2.33.43.43.69.1.29.15.6.15.91"/><path class="cls-4" d="M55.44,8.17c.02-.35-.08-.7-.27-.99-.33-.42-.93-.49-1.35-.17-.06.05-.12.1-.17.17-.19.29-.29.64-.27.99-.02.36.07.71.26,1.01.32.42.91.5,1.33.18.07-.05.13-.11.18-.18.19-.3.29-.65.27-1M56.43,8.18c0,.31-.05.62-.15.91-.09.26-.22.5-.41.7-.18.19-.4.35-.64.45-.26.11-.54.16-.83.16-.28,0-.56-.05-.82-.16-.24-.1-.46-.26-.64-.45-.18-.2-.32-.44-.41-.7-.1-.29-.15-.6-.15-.91,0-.31.05-.62.15-.91.09-.26.23-.49.42-.7.18-.19.4-.35.64-.45.26-.11.53-.16.81-.16.28,0,.56.05.82.16.24.1.46.25.64.45.18.2.32.44.41.7.1.29.15.6.15.91"/><path class="cls-4" d="M58.91,10.36c-.24,0-.49-.03-.72-.1-.17-.05-.33-.14-.46-.25-.11-.11-.2-.26-.24-.41-.05-.18-.07-.37-.07-.56v-4.84l.97-.16v4.84c0,.1,0,.2.03.3.02.08.05.15.1.21.05.06.12.1.2.13.1.03.21.06.32.07l-.14.78Z"/><path class="cls-4" d="M63.29,10.15c-.19.05-.43.1-.73.15-.33.05-.66.08-.99.08-.29,0-.58-.04-.85-.15-.21-.08-.4-.22-.55-.4-.14-.18-.25-.38-.3-.6-.06-.26-.09-.52-.09-.78v-2.36h.97v2.19c-.03.33.04.67.2.97.16.21.42.32.69.29h.37c.1,0,.2-.02.3-.04v-3.42h.97v4.08Z"/><path class="cls-4" d="M68.75,10.28h-.97v-4.21h.97v4.21ZM68.87,4.84c0,.16-.06.32-.18.43-.11.11-.26.16-.42.16-.16,0-.31-.06-.43-.16-.12-.11-.19-.27-.18-.43,0-.17.06-.33.18-.44.12-.11.27-.16.43-.16.15,0,.3.06.42.16.12.12.19.28.18.44M66.26,4.04c.17,0,.35.01.52.05.11.02.22.06.33.1l-.15.79c-.09-.03-.18-.05-.27-.07-.11-.02-.23-.03-.34-.03-.25-.03-.5.07-.66.26-.13.2-.19.43-.18.67v.28h1.55v.8h-1.55v3.4h-.96v-4.51c-.03-.47.13-.92.43-1.28.35-.32.82-.49,1.29-.45"/><path class="cls-4" d="M70,6.21c.24-.06.49-.11.73-.15.33-.05.66-.07,1-.07.29,0,.59.04.86.14.21.08.4.22.55.4.15.18.25.38.3.6.06.26.09.52.08.78v2.37h-.97v-2.21c0-.19-.01-.38-.05-.57-.02-.14-.07-.27-.14-.39-.07-.1-.16-.17-.28-.22-.14-.05-.28-.07-.42-.07-.13,0-.26,0-.39.02l-.3.04v3.4h-.97v-4.07Z"/><path class="cls-4" d="M76.19,9.6c.23,0,.46-.01.68-.05v-1.08c-.08-.02-.15-.04-.23-.05-.11-.02-.23-.02-.34-.02-.11,0-.22,0-.33.02-.1.01-.21.04-.3.09-.09.04-.16.1-.21.18-.06.09-.08.2-.08.3-.02.19.06.37.22.48.18.1.38.14.59.13M76.1,5.98c.28,0,.55.03.81.12.2.07.38.18.53.34.14.15.23.33.28.53.06.22.09.45.08.68v2.55c-.15.03-.38.07-.68.12-.34.05-.68.07-1.03.07-.23,0-.47-.02-.69-.07-.19-.04-.37-.12-.54-.23-.15-.11-.27-.25-.34-.42-.09-.2-.13-.42-.12-.64,0-.21.04-.42.14-.6.09-.17.22-.3.38-.41.17-.11.36-.19.56-.23.22-.05.44-.07.66-.07.11,0,.23,0,.34.02.13.02.25.04.38.07v-.16c0-.11-.01-.22-.04-.32-.03-.1-.08-.19-.14-.27-.07-.08-.16-.14-.27-.18-.13-.05-.27-.07-.41-.06-.21,0-.42.01-.62.05-.16.02-.31.06-.46.11l-.11-.81c.18-.06.36-.1.54-.13.25-.05.5-.07.76-.07"/><path class="cls-4" d="M79,6.21c.24-.06.49-.11.73-.15.33-.05.66-.07,1-.07.29,0,.59.04.86.14.21.08.4.22.55.4.14.18.25.38.3.6.06.26.09.52.08.78v2.37h-.97v-2.21c0-.19-.01-.38-.05-.57-.02-.14-.07-.27-.15-.39-.07-.1-.16-.18-.27-.22-.14-.05-.28-.07-.42-.07-.13,0-.26,0-.39.02-.13.02-.23.03-.3.04v3.4h-.98v-4.07Z"/><path class="cls-4" d="M83.48,8.18c0-.3.05-.59.15-.87.09-.26.23-.5.42-.7.18-.2.4-.36.65-.47.28-.12.57-.17.87-.17.39,0,.77.07,1.13.22l-.21.8c-.12-.05-.25-.09-.38-.12-.15-.03-.3-.05-.45-.05-.33-.02-.65.11-.87.36-.22.29-.32.65-.3,1.01-.02.35.08.7.28.99.24.27.59.4.95.37.16,0,.33-.02.49-.05.14-.03.28-.07.42-.12l.14.8c-.16.07-.32.12-.49.15-.22.05-.45.07-.67.07-.32,0-.64-.05-.94-.17-.25-.1-.48-.26-.66-.46-.18-.2-.31-.44-.39-.7-.09-.29-.13-.58-.13-.88"/><path class="cls-4" d="M90.24,8.17c.02-.35-.08-.7-.27-.99-.33-.42-.93-.49-1.35-.17-.06.05-.12.1-.17.17-.19.29-.29.64-.27.99-.02.35.07.71.27,1,.32.42.91.5,1.33.18.07-.05.13-.11.18-.18.19-.3.29-.65.27-1M91.24,8.17c0,.31-.05.62-.15.91-.09.26-.23.5-.42.71-.18.2-.4.35-.64.45-.53.21-1.12.21-1.64,0-.24-.1-.46-.26-.64-.45-.18-.2-.32-.44-.41-.7-.1-.29-.15-.6-.15-.91,0-.31.05-.62.15-.91.09-.26.23-.49.42-.7.18-.19.4-.35.64-.45.26-.11.53-.16.81-.16.28,0,.56.05.82.16.24.1.46.25.64.45.18.2.33.44.42.7.1.29.15.6.15.91"/><path class="cls-4" d="M93.23,10.28c-.27-.55-.54-1.19-.83-1.9-.28-.72-.54-1.49-.77-2.31h1.03c.06.24.13.49.21.76s.16.54.25.81.18.54.28.79.18.48.26.69c.08-.21.17-.43.26-.69s.18-.52.27-.79.18-.54.26-.81.15-.52.21-.76h1.01c-.23.82-.49,1.59-.77,2.31s-.56,1.35-.83,1.9h-.83Z"/><path class="cls-4" d="M98.99,4.35l-1.31,1.27-.48-.43,1.18-1.41.61.57ZM97.85,9.59c.23,0,.46-.01.69-.05v-1.08c-.08-.02-.16-.04-.24-.05-.11-.02-.22-.02-.34-.02-.11,0-.22,0-.33.02-.1.01-.21.04-.3.09-.08.04-.16.1-.21.18-.06.09-.09.2-.08.3-.02.19.06.37.22.48.18.1.38.14.59.13M97.77,5.98c.28,0,.55.03.81.12.2.07.38.19.53.34.13.15.23.33.28.53.06.22.09.45.08.68v2.55c-.15.03-.38.07-.68.12-.34.05-.68.07-1.03.07-.23,0-.47-.02-.69-.07-.19-.04-.37-.12-.54-.23-.15-.11-.27-.25-.35-.42-.09-.2-.13-.42-.12-.64,0-.21.04-.42.14-.6.09-.17.22-.32.37-.42.17-.11.36-.19.56-.23.22-.05.44-.07.67-.07.11,0,.22,0,.34.02.13.02.25.04.38.07v-.16c0-.11-.01-.22-.04-.32-.03-.1-.07-.19-.14-.27-.07-.08-.16-.14-.27-.18-.13-.05-.27-.07-.41-.06-.21,0-.42.01-.62.05-.16.02-.31.06-.46.11l-.12-.79c.18-.06.36-.1.54-.13.25-.05.5-.07.76-.07"/><path class="cls-4" d="M100.67,6.21c.24-.06.49-.11.73-.15.33-.05.66-.07,1-.07.29,0,.59.04.86.14.21.08.4.22.55.4.15.17.25.38.3.6.06.26.09.52.08.78v2.37h-.97v-2.21c0-.19-.01-.38-.04-.57-.02-.14-.07-.27-.15-.39-.07-.1-.16-.17-.28-.22-.14-.05-.28-.07-.42-.07-.13,0-.26,0-.38.02l-.3.04v3.4h-.98v-4.07Z"/><path class="cls-4" d="M108.19,8.17c.02-.35-.08-.7-.27-.99-.33-.42-.93-.49-1.35-.17-.06.05-.12.1-.17.17-.19.29-.29.64-.27.99-.02.35.08.71.27,1,.32.42.91.5,1.33.18.07-.05.13-.11.18-.18.19-.3.29-.65.27-1M109.19,8.17c0,.31-.05.62-.15.91-.09.26-.23.5-.41.71-.18.19-.4.35-.64.45-.26.11-.54.16-.82.15-.28,0-.56-.05-.82-.16-.24-.1-.46-.25-.64-.44-.18-.2-.32-.44-.41-.7-.1-.29-.15-.6-.15-.91,0-.31.05-.62.15-.91.09-.26.23-.49.42-.7.18-.19.4-.35.64-.45.52-.21,1.11-.21,1.63,0,.24.1.46.25.64.45.18.2.32.44.41.7.1.29.15.6.15.91"/><polygon class="cls-4" points="43.54 19.94 43.54 14.36 47.12 14.36 47.12 15.22 44.55 15.22 44.55 16.6 46.83 16.6 46.83 17.44 44.55 17.44 44.55 19.08 47.31 19.08 47.31 19.94 43.54 19.94"/><path class="cls-4" d="M49.12,19.94c-.27-.55-.55-1.19-.83-1.9-.3-.76-.55-1.53-.77-2.31h1.04c.06.24.13.49.21.76s.16.54.25.81.18.54.28.79.18.48.26.69c.08-.21.17-.43.26-.69s.18-.52.27-.79.17-.54.25-.81.15-.53.21-.76h.99c-.22.78-.48,1.55-.77,2.31-.28.72-.56,1.35-.83,1.9h-.82Z"/><path class="cls-4" d="M54.66,16.61c-.11-.03-.22-.06-.34-.08-.16-.03-.33-.04-.5-.04-.11,0-.23.01-.34.03-.09.01-.17.03-.25.06v3.37h-.97v-4.01c.23-.08.47-.15.7-.2.31-.06.62-.09.94-.09.08,0,.15,0,.23,0,.08,0,.17.02.26.03l.25.05c.08.02.15.04.19.05l-.17.83Z"/><path class="cls-4" d="M58.31,17.83c.02-.35-.08-.7-.27-.99-.33-.42-.93-.49-1.35-.17-.06.05-.12.1-.17.17-.19.29-.29.64-.27.99-.02.36.08.71.27,1.01.32.42.92.5,1.34.18.07-.05.13-.11.18-.18.19-.3.29-.65.27-1.01M59.31,17.83c0,.31-.05.62-.15.91-.09.26-.23.5-.41.7-.18.19-.4.35-.64.45-.26.11-.54.16-.83.16-.28,0-.56-.05-.82-.16-.24-.1-.46-.26-.64-.45-.18-.2-.32-.44-.41-.7-.1-.29-.15-.6-.15-.91,0-.31.05-.62.15-.91.09-.26.23-.49.42-.7.18-.19.4-.34.64-.45.52-.21,1.11-.21,1.63,0,.24.1.46.25.64.45.18.2.32.44.41.7.1.29.15.6.15.91"/><path class="cls-4" d="M63.11,17.86c.02-.36-.09-.72-.3-1.02-.24-.26-.59-.39-.94-.36h-.3c-.1,0-.2.02-.3.05v2.42c.11.07.22.12.34.16.15.05.3.08.45.08.3.02.6-.11.78-.36.18-.29.26-.63.25-.97M64.08,17.84c0,.3-.04.6-.13.89-.06.25-.17.48-.32.69-.16.19-.36.35-.58.45-.25.11-.52.17-.79.16-.33,0-.66-.08-.96-.23v1.64h-.99v-5.56c.2-.05.44-.1.73-.15.3-.05.6-.07.91-.07.3,0,.61.05.89.15.25.1.48.25.67.44.19.2.33.43.43.69.1.29.15.6.15.91"/><path class="cls-4" d="M66.17,19.24c.19.01.38-.02.56-.09.12-.06.19-.19.18-.32,0-.14-.07-.27-.19-.35-.19-.13-.4-.23-.62-.3-.17-.06-.33-.13-.49-.21-.14-.07-.27-.15-.38-.25-.11-.1-.2-.22-.25-.35-.07-.16-.1-.33-.09-.5-.01-.35.15-.69.43-.91.34-.24.75-.36,1.16-.34.24,0,.48.02.71.07.17.03.34.08.5.13l-.18.79c-.13-.06-.27-.1-.41-.13-.19-.04-.39-.06-.58-.06-.17,0-.33.03-.48.1-.12.06-.19.17-.19.3,0,.06.01.13.04.18.03.06.07.11.13.15.07.05.15.1.23.14.12.05.23.1.35.14.2.07.4.16.59.25.15.07.28.17.4.28.1.1.18.22.23.36.05.16.08.32.07.48.02.36-.15.7-.45.91-.38.23-.83.33-1.28.3-.31,0-.61-.02-.91-.09-.16-.04-.32-.09-.47-.15l.17-.81c.17.07.34.12.52.17.23.06.46.08.69.08"/><path class="cls-4" d="M69.77,17.37l.39-.41.43-.44.38-.43c.12-.14.23-.25.3-.36h1.15c-.27.3-.55.6-.85.93s-.6.64-.91.94c.18.15.36.31.53.49.18.19.35.39.51.6s.32.43.47.64.26.41.36.6h-1.12c-.1-.17-.21-.34-.34-.52s-.26-.36-.41-.53-.3-.33-.44-.48c-.14-.14-.28-.27-.44-.39v1.93h-.97v-6.09l.97-.16v3.68Z"/><path class="cls-4" d="M75.83,17.83c.02-.35-.08-.7-.27-.99-.33-.42-.93-.49-1.35-.17-.06.05-.12.1-.17.17-.19.29-.29.64-.27.99-.02.36.08.71.27,1.01.32.42.92.5,1.34.18.07-.05.13-.11.18-.18.19-.3.29-.65.27-1.01M76.82,17.83c0,.31-.05.62-.15.91-.09.26-.23.5-.41.7-.18.19-.4.35-.64.45-.26.11-.54.16-.83.16-.28,0-.56-.05-.82-.16-.24-.1-.46-.26-.64-.45-.18-.2-.32-.44-.41-.7-.1-.29-.15-.6-.15-.91,0-.31.05-.62.15-.91.09-.26.23-.49.42-.7.18-.19.4-.35.64-.45.52-.21,1.11-.21,1.63,0,.24.1.46.25.64.45.18.2.32.44.41.7.1.29.15.6.15.91"/><path class="cls-4" d="M81.28,19.81c-.19.05-.43.1-.73.15-.33.05-.66.08-.99.08-.29,0-.58-.04-.85-.15-.21-.09-.4-.22-.55-.4-.14-.18-.25-.38-.3-.6-.06-.26-.09-.52-.09-.79v-2.36h.98v2.2c-.03.33.04.67.2.97.16.21.42.33.69.3.12,0,.24,0,.37-.02.1,0,.2-.02.3-.04v-3.43h.97v4.08Z"/><path class="cls-4" d="M87.85,19.81c-.19.05-.43.1-.73.15-.33.05-.66.08-.99.08-.29,0-.58-.04-.85-.15-.21-.09-.4-.22-.55-.4-.14-.18-.25-.38-.3-.6-.06-.26-.09-.52-.09-.79v-2.36h.97v2.2c-.03.33.04.67.2.97.16.21.42.33.69.3.12,0,.24,0,.37-.02.1,0,.2-.02.3-.04v-3.43h.97v4.08Z"/><path class="cls-4" d="M89.09,15.87c.24-.06.49-.11.73-.15.33-.05.66-.07,1-.07.29,0,.59.04.86.14.21.08.4.22.55.4.14.18.25.38.3.6.06.26.09.52.08.79v2.36h-.97v-2.21c0-.19-.01-.38-.05-.57-.02-.14-.07-.27-.15-.39-.07-.1-.16-.18-.27-.22-.14-.05-.28-.07-.42-.07-.13,0-.26,0-.39.02-.13,0-.23.03-.3.04v3.4h-.98v-4.07Z"/><path class="cls-4" d="M94.78,19.94h-.97v-4.21h.97v4.21ZM94.88,14.5c0,.16-.06.32-.18.44-.24.21-.61.21-.85,0-.12-.11-.18-.27-.18-.44,0-.17.06-.33.18-.44.24-.21.61-.21.85,0,.12.12.18.28.18.44"/><path class="cls-4" d="M97,19.94h-.97v-4.21h.97v4.21ZM97.67,14.02l-1.31,1.27-.48-.44,1.19-1.41.61.57Z"/></g></g></svg>